<svg id="visual" viewBox="0 0 150 150" width="150" height="150" xmlns="http://www.w3.org/2000/svg" xmlns:xlink="http://www.w3.org/1999/xlink" version="1.1"><rect x="0" y="0" width="150" height="150" fill="#323031"></rect><g transform="translate(72.90848221820036 85.0020469415458)"><path d="M33.5 -58.2C46.4 -50.6 61.7 -47.6 67.2 -38.6C72.7 -29.7 68.4 -14.8 69 0.4C69.7 15.6 75.5 31.2 69.6 39.6C63.8 48 46.4 49.1 32.9 49.1C19.3 49.2 9.7 48.1 -2.1 51.7C-13.8 55.3 -27.7 63.6 -39.1 62.3C-50.5 61.1 -59.4 50.3 -64.2 38.3C-68.9 26.3 -69.5 13.2 -64.8 2.7C-60.2 -7.8 -50.4 -15.6 -45.9 -28C-41.4 -40.5 -42.2 -57.5 -35.4 -68.6C-28.7 -79.7 -14.3 -84.8 -2 -81.4C10.3 -77.9 20.7 -65.8 33.5 -58.2" fill="#404040"></path></g></svg>